<?xml version="1.0" encoding="UTF-8"?>
<svg id="_レイヤー_2" data-name="レイヤー 2" xmlns="http://www.w3.org/2000/svg" viewBox="0 0 58.58 18.26">
  <defs>
    <style>
      .cls-1 {
        fill: #006934;
      }
    </style>
  </defs>
  <g id="_レイヤー_1-2" data-name="レイヤー 1">
    <g>
      <g>
        <path class="cls-1" d="M5.87,15.52v-4.7H1.87v4.7H.06V5.76h1.81v4.36h4v-4.36h1.81v9.75h-1.81Z"/>
        <path class="cls-1" d="M9.52,7.03c0-.57.42-1,.96-1s.96.44.96,1-.42,1.02-.96,1.02-.96-.45-.96-1.02ZM9.66,15.52v-6.38l1.65-.25v6.63h-1.65Z"/>
        <path class="cls-1" d="M17.56,14.31c-.32.54-1.14.83-2.06.83-1.33,0-2.75-1.04-2.75-2.96,0-1.77,1.03-3.29,3.04-3.29,1.15,0,1.76.32,2.1.58l1.29-.45v5.45c0,1.29-.32,2.34-1.14,3.02-.63.53-1.58.75-2.52.75-.78,0-1.56-.14-2.15-.41l.32-.9c.49.46,1.08.73,1.69.73s1.19-.25,1.66-.78c.49-.54.52-1.32.52-2.19v-.4ZM17.58,10.32c-.21-.51-.82-.94-1.32-.94-1.14,0-1.82.96-1.82,2.43,0,1.85.71,2.64,1.82,2.64.67,0,1.32-.58,1.32-1.4v-2.73Z"/>
        <path class="cls-1" d="M25.02,15.52v-4.34c0-1.12-.48-1.56-1.14-1.56-.59,0-1.04.38-1.36.82v5.08h-1.65V5.47l1.65-.24v4.53c.34-.38,1.04-.86,1.93-.86,1.68,0,2.22.79,2.22,2.3v4.32h-1.65Z"/>
        <path class="cls-1" d="M36.52,16.32c-1.7-.44-3.13-1.23-3.97-2.16-.86-.96-1.47-2.12-1.73-2.94h-.38v4.3h-1.81V5.76h3.59c1.62,0,3.15.8,3.15,2.73,0,1.53-1.02,2.6-2.77,2.64.26.71.67,1.62,1.36,2.53.61.8,1.58,1.73,2.73,2.26l-.17.4ZM31.35,10.61c1.17,0,2.14-.67,2.14-2.11s-.96-2.12-2.14-2.12h-.92v4.24h.92Z"/>
        <path class="cls-1" d="M40.4,15.66c-2.15,0-3.43-1.47-3.43-3.34s1.23-3.42,3.38-3.42,3.45,1.49,3.45,3.37-1.24,3.39-3.39,3.39ZM42.09,12.67c0-1.61-.61-3.29-1.73-3.29s-1.69.94-1.69,2.55.59,3.27,1.72,3.27,1.7-.92,1.7-2.53Z"/>
        <path class="cls-1" d="M48.39,15.66c-2.15,0-3.43-1.47-3.43-3.34s1.23-3.42,3.38-3.42,3.45,1.49,3.45,3.37-1.24,3.39-3.39,3.39ZM50.08,12.67c0-1.61-.61-3.29-1.73-3.29s-1.69.94-1.69,2.55.59,3.27,1.72,3.27,1.7-.92,1.7-2.53Z"/>
        <path class="cls-1" d="M53.71,15.52v-5.93c-.16,0-.66.03-1.04.07v-.67c.45.05.88.07,1.04.07v-.17c0-2.56,1.64-3.92,3.01-3.92.61,0,1.35.09,1.86.44l-.66.91c-.33-.58-.82-.79-1.14-.79-1.07,0-1.43,1.5-1.43,3.38v.16c.3,0,1.07-.01,1.57-.07v.67c-.45-.05-1.08-.07-1.57-.07v5.93h-1.65Z"/>
      </g>
      <g>
        <path class="cls-1" d="M.6.54c-.11,0-.17.06-.17.18v2.5c0,.12.06.18.17.18h.18c.17,0,.17.13.17.17,0,.1-.05.17-.17.17h-.28c-.36,0-.5-.12-.5-.5V.69C0,.32.14.2.5.2h.28c.11,0,.17.06.17.17s-.06.17-.17.17h-.18Z"/>
        <path class="cls-1" d="M6.49.18c.06,0,.19,0,.19.17,0,.14-.05.19-.19.19h-2.43c-.11,0-.18.05-.18.19v1.05c0,.71-.12,1.2-.19,1.42-.07.2-.11.26-.22.26-.13,0-.24-.09-.24-.21,0-.06.01-.09.13-.42.04-.12.13-.54.13-1.05V.67c0-.38.16-.49.49-.49h2.52ZM5.48,3h1.01c.07,0,.19,0,.19.18s-.1.19-.19.19h-2.42s-.19,0-.19-.18c0-.14.06-.19.19-.19h1.01v-1.16h-.83c-.07,0-.19-.01-.19-.17,0-.14.07-.19.19-.19h.83v-.6c0-.06,0-.2.19-.2.16,0,.21.06.21.2v.6h.88s.19,0,.19.17c0,.14-.06.18-.19.18h-.88v1.16Z"/>
        <path class="cls-1" d="M8,3.33s0,.17-.17.17-.17-.12-.17-.17v-1.65c-.1.15-.13.2-.21.2-.11,0-.19-.12-.19-.23,0-.08.03-.11.23-.45.08-.14.24-.54.29-.72.01-.07.06-.23.08-.33.02-.08.05-.14.15-.14.06,0,.18.02.18.15,0,.08-.05.36-.2.79v2.38ZM9.05,1.95h.35s.17,0,.17.17-.1.17-.17.17h-.35v.59c.07,0,.36-.07.42-.07.15,0,.15.15.15.19,0,.15-.06.17-.41.23-.33.06-.77.12-.89.12-.13,0-.18-.09-.18-.2,0-.1.03-.16.18-.18.06-.01.33-.04.38-.04v-.64h-.35c-.05,0-.17,0-.17-.17s.11-.17.17-.17h.35v-.41c-.23.02-.38.03-.43.03-.1,0-.17-.06-.17-.19,0-.16.1-.17.21-.17.07-.2.14-.43.19-.69h-.16c-.14,0-.14-.13-.14-.17,0-.18.12-.18.17-.18h1.04s.18,0,.18.18-.13.18-.18.18h-.56c-.06.2-.15.51-.21.68.16,0,.4-.02.51-.03-.03-.08-.04-.09-.09-.2-.02-.03-.03-.07-.03-.12,0-.09.1-.14.17-.14.06,0,.1,0,.23.28.05.11.18.42.18.51,0,.1-.1.17-.19.17s-.11-.06-.15-.17c-.1.01-.15.01-.22.02v.44ZM10.01,2.52s0,.17-.16.17-.17-.12-.17-.17V.44s0-.17.17-.17.17.13.17.17v2.08ZM10.65,3.08c0,.11-.01.29-.19.35-.07.02-.3.02-.39.02-.14,0-.2,0-.25-.03-.07-.04-.1-.12-.1-.19,0-.19.15-.19.2-.19.04,0,.25,0,.29,0,.08,0,.1-.06.1-.13V.2c0-.06,0-.19.17-.19.14,0,.18.08.18.19v2.88Z"/>
        <path class="cls-1" d="M12.38.57c.33,0,.39.18.39.41v1.86c0,.32-.14.41-.41.41h-.46c-.28,0-.41-.09-.41-.41V.98c0-.18.02-.4.39-.41.05-.1.1-.3.11-.39.02-.08.03-.15.17-.15.09,0,.21.04.21.15,0,.07-.08.3-.11.39h.13ZM11.85,1.71h.56v-.67c0-.09-.04-.13-.13-.13h-.29c-.09,0-.13.04-.13.13v.67ZM12.41,2.04h-.56v.73c0,.1.06.13.13.13h.29c.07,0,.13-.03.13-.13v-.73ZM14.3.55c.13,0,.29,0,.37.14.05.09.06.2.06.42,0,.83-.06,1.74-.15,1.99-.12.35-.3.35-.75.35-.07,0-.26,0-.31,0-.1-.01-.15-.1-.15-.2,0-.02,0-.16.14-.19.03,0,.3,0,.34,0h.09c.21-.01.27,0,.33-.51.03-.3.05-1.03.05-1.34,0-.27,0-.31-.18-.31h-.76c-.07.18-.16.35-.27.52-.05.08-.08.11-.16.11-.13,0-.2-.11-.2-.2,0-.06.01-.08.12-.25.17-.28.26-.59.34-.9.02-.09.04-.17.18-.17.03,0,.2.01.2.14,0,.07-.06.31-.09.39h.76ZM13.72,1.71c.06.08.15.22.22.36.04.08.06.12.06.17,0,.14-.13.18-.2.18-.12,0-.18-.1-.23-.2-.1-.18-.23-.38-.32-.51-.02-.03-.06-.09-.06-.15,0-.11.13-.17.18-.17.09,0,.13,0,.34.31Z"/>
        <path class="cls-1" d="M18.57,1.34s.2,0,.2.18-.14.18-.2.18h-1.16c.06.21.21.74.87,1.13.14.08.28.14.4.18.1.03.18.07.18.2,0,.11-.08.24-.21.24-.11,0-.49-.16-.86-.48-.45-.39-.59-.72-.65-.86-.37.96-1.4,1.34-1.51,1.34-.13,0-.21-.13-.21-.24,0-.1.06-.14.14-.18.46-.21.51-.24.71-.4.43-.35.54-.75.59-.94h-1.14s-.2,0-.2-.18.13-.18.2-.18h1.19c0-.11,0-.16,0-.24v-.58h-1.3s-.19,0-.19-.18.14-.19.19-.19h3.07s.2,0,.2.18c0,.19-.14.19-.2.19h-1.37v.58c0,.08,0,.12,0,.24h1.26Z"/>
        <path class="cls-1" d="M19.69,2.34s-.19,0-.19-.18c0-.16.08-.2.19-.2h.62c.01-.13.01-.28.01-.31v-.59h-.58c-.06,0-.19,0-.19-.19,0-.17.11-.19.19-.19h.58V.22c0-.05,0-.2.19-.2.17,0,.22.07.22.2v.48h1.03V.21c0-.05,0-.2.19-.2.16,0,.21.07.21.2v.48h.56c.05,0,.19,0,.19.18,0,.17-.11.19-.19.19h-.56v.89h.62c.05,0,.19,0,.19.19s-.12.19-.19.19h-.62v.95c0,.05,0,.19-.19.19-.14,0-.21-.05-.21-.19v-.95h-1.09c-.05.22-.15.61-.56.95-.19.15-.28.18-.34.18-.11,0-.21-.11-.21-.22,0-.08.05-.13.11-.17.3-.21.47-.37.58-.75h-.55ZM20.73,1.67c0,.08,0,.17-.01.3h1.04v-.89h-1.03v.59Z"/>
        <path class="cls-1" d="M26.83.29c.06,0,.19.01.19.16,0,.13-.08.16-.19.16h-3.07s-.19,0-.19-.16c0-.15.12-.16.19-.16h1.34v-.12c0-.07.02-.17.19-.17s.22.06.22.16v.13h1.33ZM24.27,2.06c-.1,0-.15.05-.15.15v1.09c0,.08-.01.19-.19.19-.13,0-.21-.03-.21-.19v-1.13c0-.31.13-.41.41-.41h2.32c.28,0,.41.1.41.41v.87c0,.41-.17.41-.65.41-.15,0-.28,0-.28-.2,0-.11.04-.19.16-.19.04,0,.21,0,.25,0,.07,0,.13-.04.13-.15v-.71c0-.09-.04-.15-.15-.15h-2.05ZM26.47,1.27c0,.21-.07.33-.32.33h-1.71c-.23,0-.32-.1-.32-.33v-.17c0-.23.1-.32.32-.32h1.71c.24,0,.32.1.32.32v.17ZM26.12,2.73c0,.29-.07.36-.36.36h-.92c-.29,0-.36-.07-.36-.36v-.11c0-.28.06-.36.36-.36h.92c.29,0,.36.07.36.36v.11ZM26.08,1.13c0-.05-.02-.08-.08-.08h-1.43c-.06,0-.08.03-.08.08v.11c0,.05.03.08.08.08h1.43c.05,0,.08-.03.08-.08v-.11ZM25.75,2.6c0-.06-.03-.08-.08-.08h-.75c-.07,0-.08.04-.08.08v.13c0,.05.02.08.08.08h.75s.08-.02.08-.08v-.13Z"/>
        <path class="cls-1" d="M28.87,3.16c-.23,0-.27-.19-.27-.27,0-.06.03-.47.74-.95.65-.44.8-.54.8-.92,0-.25-.13-.53-.51-.53-.43,0-.52.33-.54.54,0,.09-.02.21-.21.21-.04,0-.23,0-.23-.21,0-.24.17-.91.99-.91.53,0,.95.32.95.93,0,.55-.27.73-.81,1.08-.44.29-.5.38-.55.46-.02.03-.06.1-.06.14,0,.05.04.06.09.06h1.13c.2,0,.2.16.2.19,0,.16-.12.19-.2.19h-1.51Z"/>
        <path class="cls-1" d="M34.46,3.03c0,.18-.13.2-.21.2-.13,0-.23-.05-.23-.2v-1.36c0-.34-.24-.39-.37-.39-.31,0-.46.28-.46.55v1.21c0,.2-.15.2-.21.2-.13,0-.22-.05-.22-.2v-1.35c0-.35-.23-.41-.37-.41-.44,0-.47.52-.47.54v1.22c0,.17-.12.2-.21.2-.14,0-.22-.06-.22-.2v-1.93c0-.2.15-.21.21-.21.13,0,.22.05.22.21v.15c.08-.13.23-.35.6-.35.39,0,.51.26.58.38.08-.14.24-.38.64-.38s.7.25.7.7v1.44Z"/>
        <path class="cls-1" d="M35.46.92c0-.51.43-.81.9-.81s.9.3.9.81c0,.38-.21.53-.37.61.47.21.47.66.47.77,0,.57-.41.93-1,.93s-1-.37-1-.93c0-.11,0-.55.48-.77-.22-.1-.38-.28-.38-.61ZM35.8,2.29c0,.53.46.57.56.57s.56-.04.56-.57c0-.4-.29-.54-.56-.54s-.56.15-.56.54ZM35.89.94c0,.27.18.46.48.46s.47-.18.47-.46c0-.29-.19-.45-.47-.45-.27,0-.48.14-.48.45Z"/>
        <path class="cls-1" d="M40.07,1.68c0,.28-.03.88-.29,1.23-.16.21-.43.33-.71.33-.31,0-.57-.14-.71-.33-.25-.35-.29-.89-.29-1.23,0-.57.1-1.56,1-1.56s1,1,1,1.56ZM38.5,1.68c0,.55.06,1.19.56,1.19s.56-.67.56-1.19-.06-1.19-.56-1.19-.56.63-.56,1.19Z"/>
        <path class="cls-1" d="M43.41,1.62c0,.16-.16.18-.22.18-.15,0-.18-.08-.21-.18-.04-.14-.18-.35-.48-.35-.54,0-.6.55-.6.8,0,.42.17.79.6.79.24,0,.4-.12.49-.36.05-.14.08-.21.23-.21.08,0,.21.04.21.18,0,.1-.15.77-.94.77-.67,0-1.03-.48-1.03-1.17,0-.74.42-1.17,1.03-1.17.68,0,.92.53.92.73Z"/>
        <path class="cls-1" d="M47.99,3.03c0,.18-.13.2-.21.2-.13,0-.23-.05-.23-.2v-1.36c0-.34-.24-.39-.37-.39-.31,0-.46.28-.46.55v1.21c0,.2-.15.2-.21.2-.13,0-.22-.05-.22-.2v-1.35c0-.35-.23-.41-.37-.41-.44,0-.47.52-.47.54v1.22c0,.17-.12.2-.21.2-.14,0-.22-.06-.22-.2v-1.93c0-.2.15-.21.21-.21.13,0,.22.05.22.21v.15c.08-.13.23-.35.6-.35.39,0,.51.26.58.38.08-.14.24-.38.64-.38s.7.25.7.7v1.44Z"/>
        <path class="cls-1" d="M50.85,2.96c0,.15-.12.27-.27.27s-.27-.12-.27-.27.12-.27.27-.27.27.12.27.27ZM50.71,2.21c0,.09-.04.16-.14.16s-.13-.06-.14-.16l-.08-1.04V.33c0-.22.19-.22.22-.22.11,0,.23.04.23.22v.83l-.09,1.04Z"/>
        <path class="cls-1" d="M53.51,2.96c0,.15-.12.27-.27.27s-.27-.12-.27-.27.12-.27.27-.27.27.12.27.27ZM53.37,2.21c0,.09-.04.16-.14.16s-.13-.06-.14-.16l-.08-1.04V.33c0-.22.19-.22.22-.22.11,0,.23.04.23.22v.83l-.09,1.04Z"/>
        <path class="cls-1" d="M56.31.2c.36,0,.5.13.5.5v2.54c0,.38-.15.5-.5.5h-.28c-.11,0-.17-.06-.17-.17,0-.11.08-.17.17-.17h.18c.1,0,.18-.04.18-.17V.71c0-.12-.06-.18-.18-.18h-.18c-.16,0-.17-.13-.17-.17,0-.1.06-.17.17-.17h.28Z"/>
      </g>
    </g>
  </g>
</svg>